<?xml version="1.0" encoding="UTF-8" standalone="no"?>
<svg
   width="90.102882"
   height="77.991096"
   viewBox="0 0 90.102882 77.991096"
   fill="none"
   version="1.1"
   id="svg33"
   sodipodi:docname="Logo_Ravatar_Black.svg"
   inkscape:version="1.1.2 (0a00cf5339, 2022-02-04)"
   xmlns:inkscape="http://www.inkscape.org/namespaces/inkscape"
   xmlns:sodipodi="http://sodipodi.sourceforge.net/DTD/sodipodi-0.dtd"
   xmlns="http://www.w3.org/2000/svg"
   xmlns:svg="http://www.w3.org/2000/svg">
  <sodipodi:namedview
     id="namedview35"
     pagecolor="#ffffff"
     bordercolor="#666666"
     borderopacity="1.0"
     inkscape:pageshadow="2"
     inkscape:pageopacity="0.0"
     inkscape:pagecheckerboard="0"
     showgrid="false"
     inkscape:zoom="3.6859504"
     inkscape:cx="34.590807"
     inkscape:cy="39.067265"
     inkscape:window-width="1920"
     inkscape:window-height="1043"
     inkscape:window-x="1920"
     inkscape:window-y="0"
     inkscape:window-maximized="1"
     inkscape:current-layer="svg33" />
  <path
     d="m 56.963383,58.8688 c -0.215,-0.3643 -0.592,-0.5865 -1.013,-0.5865 -0.422,0 -0.808,0.2222 -1.014,0.5776 l -9.748,16.7232 c -0.027,0.0355 -0.054,0.0799 -0.144,0.0799 -0.089,0 -0.116,-0.0444 -0.143,-0.0799 l -9.748,-16.7232 c -0.207,-0.3554 -0.601,-0.5865 -1.014,-0.5865 -0.421,0 -0.807,0.2133 -1.013,0.5865 -0.215,0.3643 -0.215,0.7997 0,1.1641 l 9.748,16.7231 c 0.458,0.782 1.265,1.244 2.17,1.244 0.906,0 1.722,-0.462 2.171,-1.244 l 9.748,-16.7231 c 0.215,-0.3555 0.215,-0.7909 0,-1.1552 z"
     fill="#eb4d3d"
     id="path2" />
  <path
     d="M 89.759383,1.24402 C 89.302383,0.462064 88.495383,0 87.589383,0 h -19.497 c -0.421,0 -0.807,0.21326 -1.013,0.586466 -0.215,0.36432 -0.215,0.799724 0,1.164044 0.206,0.35544 0.601,0.58647 1.013,0.58647 h 19.497 c 0.045,0 0.099,0.00888 0.143,0.07997 0.045,0.07109 0.027,0.1244 0,0.15995 l -9.748,16.7321 c -0.206,0.3554 -0.206,0.8086 0,1.164 0.215,0.3643 0.592,0.5865 1.014,0.5865 0.421,0 0.807,-0.2133 1.013,-0.5865 l 9.748,-16.74094 c 0.458,-0.78196 0.458,-1.70609 0,-2.48804 z"
     fill="#eb4d3d"
     id="path4" />
  <path
     d="M 23.019383,0.586466 C 22.804383,0.222146 22.428383,0 22.006383,0 H 2.5099834 c -0.9058,0 -1.72190002,0.462064 -2.17030002,1.24402 -0.4484,0.78195 -0.4574,1.70608 0,2.48804 L 10.087983,20.4641 c 0.2152,0.3643 0.5919,0.5865 1.0133,0.5865 0.4215,0 0.8072,-0.2222 1.0134,-0.5865 0.2063,-0.3554 0.2063,-0.8086 0,-1.164 L 2.3664834,2.56801 c -0.0269,-0.03554 -0.0449,-0.08886 0,-0.15994 0.0448,-0.07109 0.0986,-0.07998 0.1435,-0.07998 H 22.006383 c 0.422,0 0.807,-0.22214 1.013,-0.58646 0.216,-0.35544 0.216,-0.790844 0,-1.155164 z"
     fill="#eb4d3d"
     id="path6" />
  <path
     d="m 64.228383,13.8352 h -19.174 -19.174 c -1.569,0 -2.547,1.6794 -1.757,3.0212 l 9.586,16.4566 9.578,16.4566 c 0.395,0.6753 1.076,1.0041 1.758,1.0041 0.682,0 1.372,-0.3377 1.758,-1.0041 l 9.587,-16.4566 9.586,-16.4566 c 0.79,-1.3418 -0.188,-3.0212 -1.748,-3.0212 z m -1.946,2.3103 -17.237,9.8544 -17.237,-9.8544 h 17.237 z m -26.564,16.0123 -8.618,-14.786 17.237,9.8544 v 19.7177 z m 18.663,0 -8.619,14.7861 V 27.2262 l 17.237,-9.8544 z"
     fill="#ffffff"
     id="path12"
     style="fill:#000000" />
  <defs
     id="defs31">
    <clipPath
       id="clip0_1034_1323">
      <rect
         width="363"
         height="78"
         fill="#ffffff"
         id="rect28"
         x="0"
         y="0" />
    </clipPath>
  </defs>
</svg>
